<?xml version="1.0" encoding="UTF-8"?>
<svg width="58px" height="58px" viewBox="0 0 58 58" version="1.1" xmlns="http://www.w3.org/2000/svg" xmlns:xlink="http://www.w3.org/1999/xlink">
    <!-- Generator: Sketch 49.3 (51167) - http://www.bohemiancoding.com/sketch -->
    <title>Combined Shape</title>
    <desc>Created with Sketch.</desc>
    <defs></defs>
    <g id="Page-1" stroke="none" stroke-width="1" fill="none" fill-rule="evenodd">
        <g id="Desktop-HD-Copy-26" transform="translate(-54.000000, -909.000000)" fill="#FFFFFF">
            <g id="Group-2" transform="translate(54.000000, 909.000000)">
                <path d="M29,58 C12.9837423,58 0,45.0162577 0,29 C0,12.9837423 12.9837423,0 29,0 C45.0162577,0 58,12.9837423 58,29 C58,45.0162577 45.0162577,58 29,58 Z M28.6351573,36.7067254 C26.8541594,36.7067254 25.4520973,38.1087875 25.4520973,39.8897854 C25.4520973,41.6707833 26.8541594,43.110739 28.6351573,43.110739 C30.4161551,43.110739 31.8561108,41.6707833 31.8561108,39.8897854 C31.8561108,38.1087875 30.4161551,36.7067254 28.6351573,36.7067254 Z M37.236998,21.0566803 C36.971743,15.9031546 30.1887937,13.4400725 24.239503,16.0547289 C22.382718,16.8883875 21.3974851,18.5178111 21.1701237,19.5030439 C20.9427622,20.3367025 20.8669751,21.3219353 21.4353787,22.1177004 C22.2690372,23.2924011 23.8984608,23.6334432 25.035268,22.8376782 C26.1341815,22.0040196 26.4373301,20.4124896 25.6415651,19.2377889 C25.2247358,18.6693853 24.7321194,18.3283432 24.0500351,18.2146625 C23.5574187,18.1388753 23.5195251,17.1157489 24.6942258,16.6231325 C27.8393923,15.4105382 31.401388,16.8504939 31.7424301,21.2082546 C32.0834723,24.7323568 31.4771751,26.4754611 29.6961773,27.9912039 C27.2709887,29.9995632 27.4604565,32.5384325 27.687818,34.0162818 L28.6730508,33.8647075 C28.483583,31.5910932 29.7340708,29.9237761 31.7803237,29.3932661 C33.9781509,28.8248625 37.4643594,26.5891418 37.236998,21.0566803 Z" id="Combined-Shape"></path>
            </g>
        </g>
    </g>
</svg>