<?xml version="1.0" encoding="UTF-8"?>
<svg width="107px" height="73px" viewBox="0 0 107 73" version="1.1" xmlns="http://www.w3.org/2000/svg" xmlns:xlink="http://www.w3.org/1999/xlink">
    <!-- Generator: Sketch 49.3 (51167) - http://www.bohemiancoding.com/sketch -->
    <title>Group</title>
    <desc>Created with Sketch.</desc>
    <defs></defs>
    <g id="Page-1" stroke="none" stroke-width="1" fill="none" fill-rule="evenodd">
        <g id="Desktop-HD-Copy-19" transform="translate(-47.000000, -48.000000)">
            <g id="Group" transform="translate(48.000000, 51.000000)">
                <path d="M19.6296296,31.3866667 L79.0165503,31.3866667 C84.7951903,31.3866667 89.4797037,27.1175724 89.4797037,21.8513778 L89.4797037,21.2462222 C89.4500759,15.9991994 84.7742292,11.7599305 79.0165503,11.76 C73.2379102,11.76 68.5533968,16.0290943 68.5533968,21.2952889 L68.5533968,22.4401778" id="Shape" stroke="#FFFFFF" stroke-width="5.41900747" stroke-linecap="round"></path>
                <path d="M2.24338624,42.9333333 L38.448649,42.9333333 C44.2272891,42.9333333 48.9118025,47.6084556 48.9118025,53.3755111 L48.9118025,54.1098667 C48.843004,59.8278997 44.1785811,64.4270789 38.448649,64.4266667 C32.670009,64.4266667 27.9854956,59.7515444 27.9854956,53.9844889 L27.9854956,52.7307111" id="Shape" stroke="#FFFFFF" stroke-width="5.41900747" stroke-linecap="round"></path>
                <path d="M1.86948854,0 L51.1611711,0 C56.9398112,0 61.6243245,4.67512224 61.6243245,10.4421778 L61.6243245,11.1765333 C61.555526,16.8945663 56.8911032,21.4937455 51.1611711,21.4933333 C45.382531,21.4933333 40.6980176,16.8182111 40.6980176,11.0511556 L40.6980176,9.79737778" id="Shape-Copy-3" stroke="#FFFFFF" stroke-width="5.41900747" stroke-linecap="round" transform="translate(31.746907, 10.746667) scale(1, -1) translate(-31.746907, -10.746667) "></path>
                <path d="M2.6920622,33.9359998 C1.20527668,33.9359992 -6.23939111e-07,32.7325402 0,31.2479988 C6.23939112e-07,29.7634575 1.20527894,28.5599995 2.69206446,28.5600001 L85.7665903,28.5600436 C96.8892994,28.537174 105.928322,37.5118154 105.96261,48.6218155 L105.96261,49.8397711 C105.96261,60.9495597 96.9387973,69.955282 85.8080281,69.955282 C74.6772588,69.955282 65.6534462,60.9495597 65.6534462,49.8397711 L65.6534462,47.7441711 C65.6534462,46.2596298 66.858724,45.0561712 68.3455095,45.0561712 C69.8322951,45.0561712 71.0375729,46.2596298 71.0375729,47.7441711 L71.0375729,49.8397711 C71.0375729,57.9798797 77.650232,64.5792824 85.8080281,64.5792824 C93.9658241,64.5792824 100.578483,57.9798797 100.578483,49.8397711 L100.578496,48.6301017 C100.553383,40.4959043 93.9295704,33.9192706 85.7721327,33.9360376 L2.6920622,33.9359998 Z" id="Shape" fill="#FFFFFF" fill-rule="nonzero"></path>
                <rect id="Rectangle-2" fill="#FFFFFF" x="65.9929453" y="26.5066667" width="5.23624074" height="13.2443179" rx="2.61812037"></rect>
            </g>
        </g>
    </g>
</svg>